<svg xmlns="http://www.w3.org/2000/svg" xmlns:xlink="http://www.w3.org/1999/xlink" viewBox="0 0 363 242.48"><defs><style>.cls-1{isolation:isolate;}.cls-2,.cls-3{mix-blend-mode:multiply;}.cls-2{fill:url(#linear-gradient);}.cls-3{fill:url(#linear-gradient-2);}.cls-4{fill:url(#linear-gradient-3);}.cls-5{fill:#8e8f91;}.cls-6{fill:#7f7f7f;}.cls-7{fill:#c2c3c7;}.cls-8{fill:url(#linear-gradient-4);}.cls-9{fill:#404040;}.cls-10{fill:#2d2d2d;}.cls-11{fill:#fdfdfd;}.cls-12{fill:#f8f9f9;}.cls-13{fill:#7c7d7f;}.cls-14{fill:#54c7ef;}.cls-15{fill:url(#linear-gradient-5);}.cls-16,.cls-24{fill:#fff;}.cls-16{opacity:0.4;}.cls-17{fill:#303030;}.cls-18{fill:url(#linear-gradient-6);}.cls-19{fill:url(#linear-gradient-7);}.cls-20{fill:url(#linear-gradient-8);}.cls-21{fill:url(#linear-gradient-9);}.cls-22{fill:url(#linear-gradient-10);}.cls-23{fill:url(#linear-gradient-11);}.cls-25{fill:url(#linear-gradient-12);}.cls-26{fill:url(#linear-gradient-13);}.cls-27{fill:url(#linear-gradient-14);}.cls-28{fill:url(#linear-gradient-15);}.cls-29{fill:url(#linear-gradient-16);}.cls-30{fill:url(#linear-gradient-17);}.cls-31{fill:url(#linear-gradient-18);}.cls-32{fill:url(#linear-gradient-19);}.cls-33{fill:url(#linear-gradient-20);}.cls-34{fill:url(#linear-gradient-21);}.cls-35{fill:url(#linear-gradient-22);}.cls-36{fill:url(#linear-gradient-23);}.cls-37{fill:url(#linear-gradient-24);}.cls-38{fill:url(#linear-gradient-25);}.cls-39{fill:url(#linear-gradient-26);}.cls-40{fill:url(#linear-gradient-27);}.cls-41{fill:url(#linear-gradient-28);}.cls-42{fill:url(#linear-gradient-29);}.cls-43{fill:url(#linear-gradient-30);}.cls-44{fill:url(#linear-gradient-31);}.cls-45{fill:url(#linear-gradient-32);}.cls-46{fill:url(#linear-gradient-33);}.cls-47{fill:#f8f8f8;}</style><linearGradient id="linear-gradient" x1="181.25" y1="232.25" x2="181.25" y2="242.84" gradientUnits="userSpaceOnUse"><stop offset="0.04" stop-color="#2d2d2d"/><stop offset="0.24" stop-color="#6c6c6c"/><stop offset="0.43" stop-color="#a0a0a0"/><stop offset="0.6" stop-color="#c9c9c9"/><stop offset="0.76" stop-color="#e7e7e7"/><stop offset="0.9" stop-color="#f9f9f9"/><stop offset="1" stop-color="#fff"/></linearGradient><linearGradient id="linear-gradient-2" x1="181.25" y1="227.45" x2="181.25" y2="241.85" gradientUnits="userSpaceOnUse"><stop offset="0.39" stop-color="#2d2d2d"/><stop offset="0.51" stop-color="#6c6c6c"/><stop offset="0.63" stop-color="#a0a0a0"/><stop offset="0.75" stop-color="#c9c9c9"/><stop offset="0.85" stop-color="#e7e7e7"/><stop offset="0.93" stop-color="#f9f9f9"/><stop offset="1" stop-color="#fff"/></linearGradient><linearGradient id="linear-gradient-3" x1="181.5" y1="-55.5" x2="181.5" y2="275.89" gradientUnits="userSpaceOnUse"><stop offset="0" stop-color="#cacbd0"/><stop offset="1" stop-color="#999a9e"/></linearGradient><linearGradient id="linear-gradient-4" x1="181.5" y1="5.47" x2="181.5" y2="276.32" gradientUnits="userSpaceOnUse"><stop offset="0" stop-color="#fdfdfd"/><stop offset="0.7" stop-color="#f9fafa"/><stop offset="1" stop-color="#f5f6f6"/></linearGradient><linearGradient id="linear-gradient-5" x1="102.79" y1="221.68" x2="102.79" y2="228.15" gradientUnits="userSpaceOnUse"><stop offset="0" stop-color="#2ab9f1"/><stop offset="0.37" stop-color="#1289c6"/><stop offset="1" stop-color="#144b78"/></linearGradient><linearGradient id="linear-gradient-6" x1="279.04" y1="227.62" x2="279.04" y2="233.19" gradientUnits="userSpaceOnUse"><stop offset="0" stop-color="#eae9e7"/><stop offset="0.17" stop-color="#dfdedc"/><stop offset="0.48" stop-color="#c2c1bd"/><stop offset="0.55" stop-color="#bab9b5"/><stop offset="0.62" stop-color="#acaba7"/><stop offset="0.76" stop-color="#878684"/><stop offset="0.83" stop-color="#706f6d"/><stop offset="1" stop-color="#3a3a39"/></linearGradient><linearGradient id="linear-gradient-7" x1="253.01" y1="227.65" x2="253.08" y2="232.98" gradientUnits="userSpaceOnUse"><stop offset="0" stop-color="#cd2e24"/><stop offset="0.06" stop-color="#ea777e"/><stop offset="0.4" stop-color="#df3126"/><stop offset="1" stop-color="#3f1814"/></linearGradient><linearGradient id="linear-gradient-8" x1="259.65" y1="227.62" x2="259.65" y2="233.19" gradientUnits="userSpaceOnUse"><stop offset="0" stop-color="#212121"/><stop offset="0" stop-color="#242424"/><stop offset="0.02" stop-color="#4b4b4b"/><stop offset="0.04" stop-color="#686868"/><stop offset="0.06" stop-color="#797979"/><stop offset="0.07" stop-color="#7f7f7f"/><stop offset="0.14" stop-color="#a2a0a1"/><stop offset="0.34" stop-color="#716f70"/><stop offset="0.62" stop-color="#111"/><stop offset="0.8" stop-color="#312f30"/><stop offset="1" stop-color="#11110f"/></linearGradient><linearGradient id="linear-gradient-9" x1="252.43" y1="229.64" x2="252.43" y2="231" gradientUnits="userSpaceOnUse"><stop offset="0.2" stop-color="#94251e"/><stop offset="0.25" stop-color="#a9312b"/><stop offset="0.32" stop-color="#bf3d39"/><stop offset="0.39" stop-color="#d04643"/><stop offset="0.49" stop-color="#db4d4b"/><stop offset="0.63" stop-color="#e2514f"/><stop offset="1" stop-color="#e45250"/></linearGradient><linearGradient id="linear-gradient-10" x1="252.43" y1="238.64" x2="252.43" y2="239.1" gradientTransform="matrix(1, -0.03, 0, 1, 0, -3.91)" gradientUnits="userSpaceOnUse"><stop offset="0.2" stop-color="#cd2e24"/><stop offset="0.21" stop-color="#ce3128"/><stop offset="0.27" stop-color="#d74743"/><stop offset="0.33" stop-color="#de5959"/><stop offset="0.41" stop-color="#e3666a"/><stop offset="0.5" stop-color="#e77075"/><stop offset="0.63" stop-color="#e9757c"/><stop offset="1" stop-color="#ea777e"/></linearGradient><linearGradient id="linear-gradient-11" x1="252.43" y1="214.59" x2="252.43" y2="215.13" gradientTransform="matrix(1, 0.04, 0, 1, 0, 6.61)" gradientUnits="userSpaceOnUse"><stop offset="0" stop-color="#681e19"/><stop offset="0.51" stop-color="#6a1e19"/><stop offset="0.69" stop-color="#711f1a"/><stop offset="0.82" stop-color="#7c211b"/><stop offset="0.92" stop-color="#8d241d"/><stop offset="1" stop-color="#9f271f"/></linearGradient><linearGradient id="linear-gradient-12" x1="282.38" y1="227.73" x2="282.38" y2="232.92" xlink:href="#linear-gradient-7"/><linearGradient id="linear-gradient-13" x1="270.08" y1="229.57" x2="270.08" y2="231.73" gradientUnits="userSpaceOnUse"><stop offset="0" stop-color="#fff"/><stop offset="0.23" stop-color="#f4f4f4"/><stop offset="0.64" stop-color="#d8d7d5"/><stop offset="1" stop-color="#bab9b5"/></linearGradient><linearGradient id="linear-gradient-14" x1="270.08" y1="229.57" x2="270.08" y2="231.73" gradientUnits="userSpaceOnUse"><stop offset="0.12" stop-color="#00387e"/><stop offset="1" stop-color="#002054"/></linearGradient><linearGradient id="linear-gradient-15" x1="225.11" y1="227.62" x2="225.11" y2="233.19" xlink:href="#linear-gradient-6"/><linearGradient id="linear-gradient-16" x1="199.08" y1="227.65" x2="199.16" y2="232.98" gradientUnits="userSpaceOnUse"><stop offset="0" stop-color="#21bd5d"/><stop offset="0.06" stop-color="#6fda82"/><stop offset="0.4" stop-color="#23cf65"/><stop offset="1" stop-color="#0f2f1e"/></linearGradient><linearGradient id="linear-gradient-17" x1="205.72" y1="227.62" x2="205.72" y2="233.19" xlink:href="#linear-gradient-8"/><linearGradient id="linear-gradient-18" x1="198.51" y1="229.64" x2="198.51" y2="231" gradientUnits="userSpaceOnUse"><stop offset="0.2" stop-color="#1b8443"/><stop offset="0.25" stop-color="#27994f"/><stop offset="0.32" stop-color="#34af5a"/><stop offset="0.39" stop-color="#3ec064"/><stop offset="0.49" stop-color="#45cb6a"/><stop offset="0.63" stop-color="#49d26e"/><stop offset="1" stop-color="#4ad46f"/></linearGradient><linearGradient id="linear-gradient-19" x1="198.51" y1="237.2" x2="198.51" y2="237.66" gradientTransform="matrix(1, -0.03, 0, 1, 0, -3.91)" gradientUnits="userSpaceOnUse"><stop offset="0.2" stop-color="#21bd5d"/><stop offset="0.25" stop-color="#34c466"/><stop offset="0.31" stop-color="#4acc70"/><stop offset="0.39" stop-color="#5bd278"/><stop offset="0.49" stop-color="#66d77e"/><stop offset="0.62" stop-color="#6dd981"/><stop offset="1" stop-color="#6fda82"/></linearGradient><linearGradient id="linear-gradient-20" x1="198.51" y1="216.86" x2="198.51" y2="217.4" gradientTransform="matrix(1, 0.04, 0, 1, 0, 6.61)" gradientUnits="userSpaceOnUse"><stop offset="0" stop-color="#15582f"/><stop offset="0.51" stop-color="#155a30"/><stop offset="0.69" stop-color="#166133"/><stop offset="0.82" stop-color="#186c39"/><stop offset="0.92" stop-color="#1a7d41"/><stop offset="1" stop-color="#1c8f49"/></linearGradient><linearGradient id="linear-gradient-21" x1="228.45" y1="227.73" x2="228.45" y2="232.92" xlink:href="#linear-gradient-16"/><linearGradient id="linear-gradient-22" x1="216.16" y1="229.57" x2="216.16" y2="231.73" xlink:href="#linear-gradient-13"/><linearGradient id="linear-gradient-23" x1="216.16" y1="229.57" x2="216.16" y2="231.73" xlink:href="#linear-gradient-14"/><linearGradient id="linear-gradient-24" x1="171.05" y1="227.62" x2="171.05" y2="233.19" xlink:href="#linear-gradient-6"/><linearGradient id="linear-gradient-25" x1="145.02" y1="227.65" x2="145.09" y2="232.98" gradientUnits="userSpaceOnUse"><stop offset="0" stop-color="#2154bd"/><stop offset="0.06" stop-color="#6faada"/><stop offset="0.4" stop-color="#235ccf"/><stop offset="1" stop-color="#0f172f"/></linearGradient><linearGradient id="linear-gradient-26" x1="151.66" y1="227.62" x2="151.66" y2="233.19" xlink:href="#linear-gradient-8"/><linearGradient id="linear-gradient-27" x1="144.44" y1="229.64" x2="144.44" y2="231" gradientUnits="userSpaceOnUse"><stop offset="0.2" stop-color="#1b3e84"/><stop offset="0.25" stop-color="#275199"/><stop offset="0.32" stop-color="#3465af"/><stop offset="0.39" stop-color="#3e74c0"/><stop offset="0.49" stop-color="#457fcb"/><stop offset="0.63" stop-color="#4985d2"/><stop offset="1" stop-color="#4a87d4"/></linearGradient><linearGradient id="linear-gradient-28" x1="144.44" y1="235.76" x2="144.44" y2="236.22" gradientTransform="matrix(1, -0.03, 0, 1, 0, -3.91)" gradientUnits="userSpaceOnUse"><stop offset="0.2" stop-color="#2154bd"/><stop offset="0.2" stop-color="#2154bd"/><stop offset="0.26" stop-color="#396fc6"/><stop offset="0.33" stop-color="#4d85cd"/><stop offset="0.4" stop-color="#5c96d3"/><stop offset="0.5" stop-color="#67a1d7"/><stop offset="0.63" stop-color="#6da8d9"/><stop offset="1" stop-color="#6faada"/></linearGradient><linearGradient id="linear-gradient-29" x1="144.44" y1="219.13" x2="144.44" y2="219.67" gradientTransform="matrix(1, 0.04, 0, 1, 0, 6.61)" gradientUnits="userSpaceOnUse"><stop offset="0" stop-color="#152b58"/><stop offset="0.51" stop-color="#152c5a"/><stop offset="0.69" stop-color="#162e61"/><stop offset="0.82" stop-color="#18336c"/><stop offset="0.92" stop-color="#1a3a7d"/><stop offset="1" stop-color="#1c418f"/></linearGradient><linearGradient id="linear-gradient-30" x1="174.39" y1="227.73" x2="174.39" y2="232.92" xlink:href="#linear-gradient-25"/><linearGradient id="linear-gradient-31" x1="162.09" y1="229.57" x2="162.09" y2="231.73" xlink:href="#linear-gradient-13"/><linearGradient id="linear-gradient-32" x1="162.09" y1="229.57" x2="162.09" y2="231.73" xlink:href="#linear-gradient-14"/><linearGradient id="linear-gradient-33" x1="181.5" y1="230.91" x2="181.5" y2="235.68" gradientUnits="userSpaceOnUse"><stop offset="0" stop-color="#cacbd0"/><stop offset="0.24" stop-color="#c7c8cd"/><stop offset="0.4" stop-color="#bfc0c4"/><stop offset="0.55" stop-color="#b0b1b5"/><stop offset="0.68" stop-color="#9b9c9f"/><stop offset="0.8" stop-color="#808083"/><stop offset="0.91" stop-color="#5f6061"/><stop offset="1" stop-color="#404040"/></linearGradient></defs><g class="cls-1"><g id="Capa_2" data-name="Capa 2"><g id="layer"><path class="cls-2" d="M290.59,242.48H71.91c-3.65,0-7.41-9.93-7.41-9.93H298S294.24,242.48,290.59,242.48Z"/><path class="cls-3" d="M350.08,242H12.42C6.79,242,1,227.55,1,227.55H361.51S355.71,242,350.08,242Z"/><rect class="cls-4" x="0.5" y="0.5" width="362" height="234" rx="9"/><rect class="cls-5" x="7.5" y="7.5" width="348" height="220" rx="2"/><path class="cls-6" d="M9.5,9.5h344s1.37-1.22,1.46-1.36a2,2,0,0,0-1.46-.64H9.5A2,2,0,0,0,8,8.2Z"/><path class="cls-7" d="M353.5,225.5H9.46L8.14,227a2,2,0,0,0,1.36.54h344a2,2,0,0,0,1.45-.63Z"/><rect class="cls-8" x="8.5" y="8.5" width="346" height="218"/><path class="cls-9" d="M354,11.55V9.77a.71.71,0,0,0-.62-.77h-1.63V0h1.75A9.51,9.51,0,0,1,363,9.5v2.05Z"/><path class="cls-10" d="M355.66,11c0-3.27-.41-3.48-2.7-3.48h-1.21V9h1.63a.71.71,0,0,1,.62.77v1.78h9V11Z"/><path class="cls-5" d="M360.51,4.11A8.78,8.78,0,0,0,353.38.37h-1.64v1h1.8A10.07,10.07,0,0,1,360.51,4.11Z"/><path class="cls-9" d="M9,11.55V9.77A.71.71,0,0,1,9.62,9h1.63V0H9.5A9.51,9.51,0,0,0,0,9.5v2.05Z"/><path class="cls-10" d="M7.34,11c0-3.27.41-3.48,2.7-3.48h1.21V9H9.62A.71.71,0,0,0,9,9.77v1.78H0V11Z"/><path class="cls-5" d="M2.49,4.11A8.78,8.78,0,0,1,9.62.37h1.64v1H9.46A10.07,10.07,0,0,0,2.49,4.11Z"/><path class="cls-9" d="M9,223.34v1.78a.71.71,0,0,0,.62.77h1.63v9H9.5a9.51,9.51,0,0,1-9.5-9.5v-2Z"/><path class="cls-10" d="M9.62,225.89a.71.71,0,0,1-.62-.77v-1.78H7.38v1.89c.14,2,.73,2.16,2.66,2.16h1.21v-1.5Z"/><path class="cls-10" d="M9.73,233.47a10,10,0,0,1-9.62-6.74,9.51,9.51,0,0,0,9.39,8.16h1.75v-1.42Z"/><path class="cls-9" d="M353.7,223.34v1.78a.71.71,0,0,1-.62.77h-1.62v9h1.74a9.51,9.51,0,0,0,9.5-9.5v-2Z"/><path class="cls-10" d="M353.08,225.89a.71.71,0,0,0,.62-.77v-1.78h1.62v1.89c-.14,2-.73,2.16-2.66,2.16h-1.2v-1.5Z"/><path class="cls-10" d="M353,233.48a10,10,0,0,0,9.62-6.75,9.5,9.5,0,0,1-9.39,8.16h-1.74v-1.41Z"/><path class="cls-11" d="M10.73,225.28V10.73H351.26S306.07,75.81,227.34,130.4C116.62,207.16,10.73,225.28,10.73,225.28Z"/><path class="cls-12" d="M351,1.33a.16.16,0,0,1-.17.17H12.17A.16.16,0,0,1,12,1.33h0a.16.16,0,0,1,.17-.16H350.83a.16.16,0,0,1,.17.16Z"/><path class="cls-13" d="M351.25,234c0,.17-.08.31-.17.31H11.64c-.09,0-.17-.14-.17-.31h0c0-.17.08-.31.17-.31H351.08c.09,0,.17.14.17.31Z"/><path class="cls-14" d="M124.76,226.23a3.46,3.46,0,0,1-3.45,3.46h-37a3.46,3.46,0,0,1-3.45-3.46v-1c0-1.91,2.17-4.15,4-4.15h35.45c1.8,0,4.51,2.24,4.51,4.15Z"/><rect class="cls-15" x="80.83" y="221.9" width="43.93" height="8.62" rx="3.45"/><path class="cls-9" d="M80.83,227.51v2.14a3.46,3.46,0,0,0,3.45,3.45h37a3.46,3.46,0,0,0,3.45-3.45v-2.14Z"/><path class="cls-16" d="M121.31,221.9h-37a3.45,3.45,0,0,0-3.45,3.45v.36a3.45,3.45,0,0,1,3.45-3.45h37a3.45,3.45,0,0,1,3.45,3.45v-.36A3.45,3.45,0,0,0,121.31,221.9Z"/><rect class="cls-17" x="80.83" y="227.51" width="43.93" height="0.39"/><path class="cls-17" d="M121.37,232.71H84.22a3.46,3.46,0,0,1-3.36-2.63,3.46,3.46,0,0,0,3.42,3h37a3.46,3.46,0,0,0,3.42-3A3.46,3.46,0,0,1,121.37,232.71Z"/><rect class="cls-18" x="261.58" y="227.46" width="34.92" height="5.68" rx="0.65"/><path class="cls-19" d="M257.73,227.47h-.08l-8.74.36a.58.58,0,0,0-.56.58v3.78a.58.58,0,0,0,.56.58l8.74.36h.08Z"/><path class="cls-20" d="M261.58,227.5a.78.78,0,0,0-.22,0H258a.73.73,0,0,0-.3.07v5.54a.73.73,0,0,0,.3.07h3.35a.78.78,0,0,0,.22,0Z"/><path class="cls-21" d="M256.13,230.83h-7.78v-1.15h7.78c.32,0,.38.26.38.57S256.45,230.83,256.13,230.83Z"/><path class="cls-22" d="M256.13,227.91l-7.69.2a.22.22,0,0,0-.09.17v.23l7.78-.21c.32,0,.38-.1.38-.21S256.45,227.9,256.13,227.91Z"/><path class="cls-23" d="M256.51,232.33c0-.2-.06-.36-.38-.38l-7.78-.32v.56a.77.77,0,0,0,0,.15l7.76.33C256.45,232.68,256.51,232.52,256.51,232.33Z"/><path class="cls-24" d="M296.12,227.79a.16.16,0,0,1-.16.16H261.9a.16.16,0,0,1-.16-.16h0a.17.17,0,0,1,.16-.17H296a.17.17,0,0,1,.16.17Z"/><rect class="cls-25" x="273.44" y="229.03" width="17.87" height="2.27"/><rect class="cls-26" x="267.42" y="229.03" width="5.33" height="2.27"/><polygon class="cls-27" points="272.75 229.03 267.42 231.3 272.75 231.3 272.75 229.03"/><rect class="cls-28" x="207.65" y="227.46" width="34.92" height="5.68" rx="0.65"/><path class="cls-29" d="M203.8,227.47h-.08l-8.73.36a.58.58,0,0,0-.56.58v3.78a.58.58,0,0,0,.56.58l8.73.36h.08Z"/><path class="cls-30" d="M207.66,227.5a.85.85,0,0,0-.22,0h-3.36a.73.73,0,0,0-.29.07v5.54a.73.73,0,0,0,.29.07h3.36a.85.85,0,0,0,.22,0Z"/><path class="cls-31" d="M202.21,230.83h-7.78v-1.15h7.78c.32,0,.38.26.38.57S202.53,230.83,202.21,230.83Z"/><path class="cls-32" d="M202.21,227.91l-7.7.2a.25.25,0,0,0-.08.17v.23l7.78-.21c.32,0,.38-.1.38-.21S202.53,227.9,202.21,227.91Z"/><path class="cls-33" d="M202.59,232.33c0-.2-.06-.36-.38-.38l-7.78-.32v.56a.77.77,0,0,0,0,.15l7.76.33C202.53,232.68,202.59,232.52,202.59,232.33Z"/><path class="cls-24" d="M242.2,227.79a.16.16,0,0,1-.16.16H208a.17.17,0,0,1-.17-.16h0a.18.18,0,0,1,.17-.17H242a.17.17,0,0,1,.16.17Z"/><rect class="cls-34" x="219.52" y="229.03" width="17.87" height="2.27"/><rect class="cls-35" x="213.49" y="229.03" width="5.33" height="2.27"/><polygon class="cls-36" points="218.82 229.03 213.49 231.3 218.82 231.3 218.82 229.03"/><rect class="cls-37" x="153.59" y="227.46" width="34.92" height="5.68" rx="0.65"/><path class="cls-38" d="M149.74,227.47h-.09l-8.73.36a.58.58,0,0,0-.56.58v3.78a.58.58,0,0,0,.56.58l8.73.36h.09Z"/><path class="cls-39" d="M153.59,227.5a.78.78,0,0,0-.22,0H150a.73.73,0,0,0-.3.07v5.54a.73.73,0,0,0,.3.07h3.35a.78.78,0,0,0,.22,0Z"/><path class="cls-40" d="M148.14,230.83h-7.78v-1.15h7.78c.32,0,.38.26.38.57S148.46,230.83,148.14,230.83Z"/><path class="cls-41" d="M148.14,227.91l-7.69.2a.22.22,0,0,0-.09.17v.23l7.78-.21c.32,0,.38-.1.38-.21S148.46,227.9,148.14,227.91Z"/><path class="cls-42" d="M148.52,232.33c0-.2-.06-.36-.38-.38l-7.78-.32v.56a.77.77,0,0,0,0,.15l7.76.33C148.46,232.68,148.52,232.52,148.52,232.33Z"/><path class="cls-24" d="M188.13,227.79a.16.16,0,0,1-.16.16H153.91a.16.16,0,0,1-.16-.16h0a.17.17,0,0,1,.16-.17H188a.17.17,0,0,1,.16.17Z"/><rect class="cls-43" x="165.45" y="229.03" width="17.87" height="2.27"/><rect class="cls-44" x="159.43" y="229.03" width="5.33" height="2.27"/><polygon class="cls-45" points="164.75 229.03 159.43 231.3 164.75 231.3 164.75 229.03"/><path class="cls-46" d="M63.41,232.61v.73a8.19,8.19,0,0,0,6.48,3.18H293.11a8.19,8.19,0,0,0,6.48-3.18v-.73Z"/><path class="cls-47" d="M63.41,232.61v-.36H299.59v.36Z"/></g></g></g></svg>